<svg xmlns="http://www.w3.org/2000/svg" width="1200" height="610" viewBox="0 0 1200 610"><defs><marker id="a" markerWidth="8" markerHeight="8" refX="7" refY="4" orient="auto"><path d="M0 0L8 4L0 8Z" fill="#315b9a"/></marker></defs><rect width="1200" height="610" fill="#fbfaf6"/><g font-family="Arial,'PingFang SC',sans-serif" fill="#263238"><text x="50" y="52" font-size="24" font-weight="700">在线纵深防御与离线回流</text><text x="50" y="82" font-size="15" fill="#667085">信号并行，策略串行，权限独立</text><rect x="55" y="220" width="150" height="80" rx="7" fill="#fff" stroke="#98a2b3"/><text x="130" y="255" font-size="16" font-weight="700" text-anchor="middle">请求</text><text x="130" y="280" font-size="13" text-anchor="middle">文本 / 文档 / 工具</text><path d="M205 260H270" stroke="#315b9a" stroke-width="2" marker-end="url(#a)"/><g font-size="15" text-anchor="middle"><rect x="275" y="140" width="200" height="85" rx="7" fill="#e8eef8" stroke="#315b9a"/><text x="375" y="175" font-weight="700">确定性快路</text><text x="375" y="200" font-size="13">格式 · schema · 限额</text><rect x="275" y="285" width="200" height="85" rx="7" fill="#e8eef8" stroke="#315b9a"/><text x="375" y="320" font-weight="700">语义主路</text><text x="375" y="345" font-size="13">SmallGuard score</text><rect x="560" y="205" width="190" height="110" rx="7" fill="#f7edcf" stroke="#b8891b"/><text x="655" y="245" font-weight="700">策略合并</text><text x="655" y="272" font-size="13">允许 / 灰区 / 拒绝</text><text x="655" y="296" font-size="13">版本化路由规则</text><rect x="830" y="110" width="185" height="80" rx="7" fill="#f4ecec" stroke="#975b5b"/><text x="922" y="145" font-weight="700">人工复核</text><text x="922" y="170" font-size="13">有预算的灰区</text><rect x="830" y="235" width="185" height="80" rx="7" fill="#edf5ef" stroke="#4f7b5b"/><text x="922" y="270" font-weight="700">权限闸门</text><text x="922" y="295" font-size="13">身份 · 参数 · 审批</text><rect x="830" y="360" width="185" height="80" rx="7" fill="#fff" stroke="#98a2b3"/><text x="922" y="395" font-weight="700">监控与审计</text><text x="922" y="420" font-size="13">指标 · 事件 · 版本</text></g><g fill="none" stroke="#315b9a" stroke-width="2" marker-end="url(#a)"><path d="M205 260C235 260 240 182 270 182"/><path d="M205 260C235 260 240 327 270 327"/><path d="M475 182C520 182 520 240 555 250"/><path d="M475 327C520 327 520 280 555 270"/><path d="M750 250H825"/><path d="M750 235C785 235 790 150 825 150"/><path d="M922 190V230"/><path d="M922 315V355"/><path d="M830 400C650 520 400 520 375 375"/></g><text x="530" y="545" font-size="14" fill="#667085" text-anchor="middle">bad cases → 裁决 → 数据版本 → 回归评测 → 灰度发布</text></g></svg>
